<svg width="68" height="71" viewBox="0 0 68 71" fill="none" xmlns="http://www.w3.org/2000/svg">
<path id="Star 5" d="M30.628 3.35784C32.2216 1.09988 35.5704 1.09988 37.164 3.35784L40.3996 7.94216C41.4222 9.39106 43.2768 9.99365 44.9557 9.42254L50.2679 7.61556C52.8844 6.72555 55.5936 8.6939 55.5557 11.4573L55.4787 17.0679C55.4544 18.8412 56.6006 20.4188 58.2946 20.9436L63.6544 22.6042C66.2943 23.4221 67.3291 26.6069 65.6741 28.8203L62.314 33.3142C61.252 34.7345 61.252 36.6845 62.314 38.1048L65.6741 42.5986C67.3291 44.812 66.2943 47.9968 63.6543 48.8147L58.2946 50.4753C56.6006 51.0001 55.4544 52.5777 55.4787 54.351L55.5557 59.9616C55.5936 62.7251 52.8844 64.6934 50.2679 63.8034L44.9557 61.9964C43.2768 61.4253 41.4222 62.0279 40.3996 63.4768L37.164 68.0611C35.5704 70.3191 32.2216 70.3191 30.628 68.0611L27.3924 63.4768C26.3698 62.0279 24.5152 61.4253 22.8363 61.9964L17.5241 63.8034C14.9076 64.6934 12.1984 62.725 12.2363 59.9616L12.3133 54.351C12.3376 52.5777 11.1914 51.0001 9.49742 50.4753L4.13764 48.8147C1.49772 47.9968 0.462909 44.812 2.1179 42.5986L5.47799 38.1048C6.53998 36.6845 6.53998 34.7345 5.47799 33.3142L2.11789 28.8203C0.462908 26.6069 1.49773 23.4221 4.13764 22.6042L9.49742 20.9436C11.1914 20.4188 12.3376 18.8412 12.3133 17.0679L12.2363 11.4573C12.1984 8.69389 14.9076 6.72555 17.5241 7.61556L22.8363 9.42254C24.5152 9.99365 26.3698 9.39106 27.3924 7.94215L30.628 3.35784Z" stroke="#06B6D4" stroke-width="2"/>
</svg>
