<svg width="49" height="48" viewBox="0 0 49 48" fill="none" xmlns="http://www.w3.org/2000/svg">
<g id="muslim prayer" clip-path="url(#clip0_1802_11419)">
<g id="Layer 1 copy">
<path id="Vector" d="M43.894 47.4999V30.4999C43.9137 28.8521 43.3764 27.246 42.369 25.9419C42.369 25.9419 43.603 24.4999 43.583 23.9999C43.563 23.4999 42.332 22.3349 42.332 22.3349C42.9326 21.2343 43.2527 20.0026 43.264 18.7489C43.264 12.3489 37.207 8.57089 31.47 6.36489C30.3668 5.93274 29.2972 5.41933 28.27 4.82889C24.848 2.91189 24.332 0.337891 24.332 0.337891C24.332 0.337891 23.816 2.91189 20.393 4.82889C19.3658 5.41933 18.2962 5.93274 17.193 6.36489C11.457 8.57089 5.40001 12.3489 5.40001 18.7489C5.41132 20.0026 5.73143 21.2343 6.33201 22.3349C6.33201 22.3349 5.10001 23.5059 5.08101 23.9999C5.06201 24.4939 6.29501 25.9459 6.29501 25.9459C5.28851 27.2489 4.75119 28.8535 4.77001 30.4999V47.4999" fill="#4E7095"/>
<path id="Vector_2" d="M22.0261 12.2099C21.0738 12.2491 20.1658 12.6222 19.4611 13.2639C19.2623 13.4351 19.103 13.6474 18.9943 13.8862C18.8855 14.125 18.8298 14.3845 18.8311 14.6469V15.3229L24.3791 12.8939C23.6856 12.4253 22.8627 12.1861 22.0261 12.2099Z" fill="#DFECFA"/>
<path id="Vector_3" d="M35.262 23.4099L34.682 25.6799C34.515 26.3129 34.142 26.8723 33.622 27.2699L32.342 28.2599L32.102 28.4399L30.982 25.7999V24.6099C30.9825 24.3844 31.0523 24.1644 31.182 23.9799C31.182 23.9799 32.142 22.6799 32.304 22.4409C32.3404 22.3729 32.4005 22.3207 32.4729 22.2942C32.5453 22.2677 32.6249 22.2687 32.6966 22.2971C32.7683 22.3256 32.827 22.3794 32.8615 22.4483C32.8961 22.5172 32.9041 22.5965 32.884 22.6709C32.814 22.9119 32.332 24.7299 32.332 24.7299L32.862 24.3699C33.2285 24.1273 33.5251 23.7929 33.722 23.3999L34.882 21.0899C34.8922 21.07 34.9075 21.0532 34.9263 21.0412C34.9451 21.0291 34.9668 21.0223 34.9891 21.0212C35.0114 21.0202 35.0336 21.0251 35.0534 21.0354C35.0732 21.0457 35.09 21.0611 35.102 21.0799L35.262 21.7099C35.402 22.2679 35.402 22.8519 35.262 23.4099ZM23.532 20.4799L25.032 20.9999C25.1065 21.0245 25.1858 21.0313 25.2634 21.0196C25.341 21.008 25.4147 20.9782 25.4787 20.9327C25.5427 20.8873 25.595 20.8274 25.6316 20.7579C25.6681 20.6885 25.6878 20.6114 25.689 20.5329V18.5029L26.299 18.3149L25.407 16.2949V14.8999C25.4132 14.526 25.3327 14.1558 25.1716 13.8183C25.0106 13.4808 24.7735 13.1853 24.479 12.9549C24.448 12.9329 24.408 12.9129 24.379 12.8899L18.832 15.3229V17.7539C18.9957 18.6225 19.3847 19.4328 19.96 20.1039V20.9489L23.53 22.2179L23.532 20.4799ZM21.617 44.0619H19.032C18.6257 44.0614 18.232 44.2028 17.919 44.4619L16.919 45.2949L14.019 46.6499C13.9273 46.6928 13.853 46.7658 13.8083 46.8566C13.7637 46.9475 13.7513 47.0509 13.7734 47.1497C13.7954 47.2485 13.8504 47.3369 13.9295 47.4002C14.0085 47.4635 14.1067 47.498 14.208 47.4979H19.418L22.332 44.0619H21.617Z" fill="#F2D3C4"/>
<path id="Vector_4" d="M35.4964 45.854C35.3202 46.3458 34.9934 46.7695 34.5626 47.065C34.1317 47.3605 33.6187 47.5127 33.0964 47.5H19.4124L22.3324 44.06H21.3024C20.5782 44.0624 19.863 43.8982 19.2124 43.58C18.3945 43.1875 17.7041 42.5718 17.2211 41.8039C16.7381 41.036 16.482 40.1472 16.4824 39.24V26.9699C16.4815 25.4589 17.0615 24.0053 18.1024 22.91L19.9624 20.95L23.5324 22.2199L24.6584 23.384C24.9023 23.636 25.0692 23.9524 25.1394 24.2959L26.2524 29.7959L30.9824 25.7959L32.7024 29.856L24.7024 34.576V37.366L34.4224 43.0359C34.8966 43.3121 35.2619 43.7424 35.4573 44.2552C35.6527 44.768 35.6665 45.3322 35.4964 45.854Z" fill="#DFECFA"/>
<path id="Vector_5" d="M27.6419 44.0598H21.3019C20.5776 44.0623 19.8625 43.898 19.2119 43.5798C19.2439 43.5675 19.2777 43.5607 19.3119 43.5598L27.6419 43.8598V44.0598Z" fill="#BDD5F2"/>
<path id="Vector_6" d="M21.125 29.4109L24.704 34.5749V35.7359L21.125 29.9909V29.4109Z" fill="#CBE0F6"/>
<path id="Vector_7" d="M32.3424 28.2598L32.1024 28.4398L30.9824 25.7798V25.4448L32.3424 28.2598Z" fill="#EFC5B1"/>
<path id="Vector_8" d="M19.4119 47.5H19.0039C19.0039 47.5 21.8969 44.068 21.9199 44.068L22.3319 44.062L19.4119 47.5Z" fill="#EFC5B1"/>
<path id="Vector_9" d="M23.5322 22.22L23.5292 20.48L22.3672 20.01L23.5322 22.22Z" fill="#EFC5B1"/>
</g>
<g id="Layer 1 copy 2">
<path id="Vector_10" d="M34.6762 42.6104L25.2032 37.0874V34.8614L32.9592 30.2864C33.0639 30.2247 33.1425 30.1271 33.1804 30.0117C33.2183 29.8963 33.2129 29.7711 33.1652 29.6594L32.7142 28.5994L33.9212 27.6704C34.5327 27.2031 34.9705 26.5449 35.1652 25.8004L35.7472 23.5274C35.9057 22.889 35.9057 22.2217 35.7472 21.5834L35.5862 20.9534C35.5741 20.9026 35.5534 20.8543 35.5252 20.8104C35.4673 20.7187 35.3867 20.6435 35.2913 20.5922C35.1958 20.5409 35.0886 20.5151 34.9802 20.5174C34.8669 20.521 34.7566 20.555 34.6608 20.6156C34.5649 20.6763 34.4871 20.7615 34.4352 20.8624L33.2772 23.1624C33.2702 23.1784 33.2612 23.1934 33.2532 23.2084C33.3062 23.0084 33.3472 22.8614 33.3642 22.8084C33.419 22.6252 33.4063 22.4285 33.3285 22.2538C33.2507 22.0792 33.113 21.9382 32.9402 21.8564C32.7592 21.7709 32.5532 21.7543 32.3608 21.8095C32.1683 21.8646 32.0025 21.9879 31.8942 22.1564C31.7332 22.3884 30.7802 23.6834 30.7702 23.6974C30.5828 23.9649 30.4822 24.2837 30.4822 24.6104V25.5694L26.5722 28.8744L25.5232 23.6744C25.504 23.5803 25.4586 23.4937 25.3922 23.4244L24.0312 22.0154V21.1834L24.8712 21.4754C25.0211 21.5263 25.181 21.541 25.3376 21.5182C25.4943 21.4953 25.6433 21.4356 25.7723 21.3439C25.9014 21.2522 26.0069 21.1312 26.08 20.9908C26.1532 20.8504 26.192 20.6947 26.1932 20.5364V18.8754L26.4502 18.7964C26.5177 18.7756 26.5801 18.7409 26.6332 18.6943C26.6862 18.6478 26.7289 18.5906 26.7582 18.5264C26.7872 18.4619 26.8022 18.392 26.8022 18.3214C26.8022 18.2507 26.7872 18.1808 26.7582 18.1164L25.9082 16.1924V14.9004C25.9142 14.4488 25.8153 14.002 25.6194 13.5951C25.4235 13.1882 25.1359 12.8323 24.7792 12.5554C23.9796 11.9771 23.0116 11.6787 22.0252 11.7064C20.9538 11.7443 19.9304 12.1602 19.1362 12.8804C18.8818 13.0988 18.678 13.37 18.539 13.6751C18.3999 13.9803 18.3291 14.312 18.3312 14.6474V17.7544C18.4613 18.6852 18.852 19.5602 19.4582 20.2784V20.7504L17.7402 22.5624C16.6088 23.7504 15.9789 25.3288 15.9812 26.9694V37.8004C15.9812 37.933 16.0339 38.0601 16.1277 38.1539C16.2214 38.2477 16.3486 38.3004 16.4812 38.3004C16.6138 38.3004 16.741 38.2477 16.8348 38.1539C16.9286 38.0601 16.9812 37.933 16.9812 37.8004V26.9694C16.979 25.5849 17.5105 24.2529 18.4652 23.2504L20.3212 21.2934C20.4092 21.2004 20.4583 21.0773 20.4582 20.9494V20.1004C20.4585 19.984 20.4182 19.8712 20.3442 19.7814C19.8387 19.2035 19.4899 18.5056 19.3312 17.7544V15.6544L23.0012 14.0784C23.0625 14.0531 23.1181 14.016 23.1649 13.969C23.2117 13.9221 23.2487 13.8663 23.2737 13.805C23.2987 13.7436 23.3113 13.6779 23.3108 13.6117C23.3102 13.5454 23.2964 13.4799 23.2703 13.419C23.2442 13.3581 23.2063 13.303 23.1587 13.2569C23.1111 13.2108 23.0548 13.1746 22.9931 13.1505C22.9314 13.1263 22.8655 13.1147 22.7993 13.1162C22.733 13.1177 22.6678 13.1324 22.6072 13.1594L19.3402 14.5594C19.3492 14.3847 19.3933 14.2136 19.47 14.0564C19.5466 13.8992 19.6542 13.759 19.7862 13.6444C20.4002 13.0798 21.1931 12.7488 22.0262 12.7094C22.7963 12.6838 23.5534 12.9118 24.1812 13.3584C24.4136 13.5422 24.6002 13.7774 24.7265 14.0454C24.8528 14.3135 24.9153 14.6071 24.9092 14.9034V16.3004C24.9093 16.3692 24.9236 16.4373 24.9512 16.5004L25.6172 18.0064L25.5442 18.0284C25.442 18.0598 25.3526 18.1232 25.289 18.2092C25.2255 18.2953 25.1912 18.3994 25.1912 18.5064L25.1982 20.5314L23.6982 20.0074C23.6229 19.9812 23.5424 19.9734 23.4635 19.9847C23.3846 19.996 23.3095 20.026 23.2445 20.0722C23.1796 20.1184 23.1266 20.1794 23.09 20.2502C23.0534 20.3211 23.0343 20.3996 23.0342 20.4794V21.5004L21.5082 20.9414C21.446 20.9154 21.3791 20.9024 21.3116 20.903C21.2442 20.9037 21.1775 20.9179 21.1157 20.945C21.0539 20.972 20.9983 21.0113 20.952 21.0604C20.9058 21.1095 20.87 21.1675 20.8468 21.2309C20.8236 21.2942 20.8134 21.3616 20.8169 21.4289C20.8204 21.4963 20.8375 21.5623 20.8671 21.6228C20.8968 21.6834 20.9384 21.7374 20.9895 21.7815C21.0405 21.8256 21.1 21.8589 21.1642 21.8794L23.2542 22.6454L24.5772 24.0094L25.7582 29.9004C25.7754 29.9855 25.8145 30.0648 25.8716 30.1303C25.9287 30.1957 26.0019 30.2452 26.084 30.2738C26.1661 30.3023 26.2542 30.309 26.3396 30.2932C26.425 30.2773 26.5049 30.2395 26.5712 30.1834L31.3002 26.1834C31.3072 26.1774 31.3102 26.1694 31.3162 26.1634C31.3413 26.1377 31.3638 26.1095 31.3832 26.0794C31.3998 26.0581 31.4149 26.0357 31.4282 26.0124C31.4443 25.9746 31.4554 25.935 31.4612 25.8944C31.4675 25.8735 31.4718 25.852 31.4742 25.8304C31.4742 25.8184 31.4812 25.8084 31.4812 25.7974V24.6104C31.4801 24.4915 31.515 24.375 31.5812 24.2764C31.5812 24.2764 31.8522 23.9084 32.1312 23.5264L31.8482 24.6004C31.8221 24.6988 31.8267 24.8029 31.8613 24.8987C31.896 24.9945 31.9591 25.0775 32.0422 25.1364C32.1253 25.1954 32.2244 25.2275 32.3263 25.2286C32.4282 25.2296 32.5279 25.1996 32.6122 25.1424L33.1342 24.7884C33.5743 24.4961 33.9307 24.0942 34.1682 23.6224L34.8522 22.2604C34.8863 22.6035 34.8609 22.9499 34.7772 23.2844L34.1982 25.5484C34.0601 26.0757 33.7496 26.5417 33.3162 26.8724L32.3082 27.6474L32.0172 26.9644C31.9651 26.8424 31.8667 26.7461 31.7436 26.6966C31.6204 26.6472 31.4827 26.6487 31.3607 26.7009C31.2387 26.753 31.1424 26.8514 31.093 26.9745C31.0436 27.0977 31.0451 27.2354 31.0972 27.3574L32.0732 29.6454L24.8472 33.9104L22.1222 30.0164C22.0462 29.9076 21.9302 29.8335 21.7996 29.8104C21.6689 29.7872 21.5345 29.8169 21.4257 29.8929C21.317 29.9688 21.2429 30.0849 21.2197 30.2155C21.1966 30.3461 21.2263 30.4806 21.3022 30.5894L24.2022 34.7334V37.3744C24.2022 37.4618 24.2251 37.5476 24.2686 37.6234C24.3121 37.6992 24.3747 37.7623 24.4502 37.8064L34.1712 43.4744C34.5301 43.6838 34.81 44.0056 34.9677 44.3899C35.1255 44.7743 35.1524 45.1999 35.0442 45.601C34.936 46.0022 34.6987 46.3566 34.3691 46.6095C34.0394 46.8624 33.6357 46.9997 33.2202 47.0004H20.4932L22.5582 44.5624H26.3832C26.5158 44.5624 26.643 44.5097 26.7368 44.4159C26.8306 44.3221 26.8832 44.195 26.8832 44.0624C26.8832 43.9297 26.8306 43.8026 26.7368 43.7088C26.643 43.615 26.5158 43.5624 26.3832 43.5624H21.2992C20.1543 43.5613 19.0565 43.1061 18.2468 42.2965C17.4371 41.487 16.9816 40.3893 16.9802 39.2444C16.9802 39.1117 16.9276 38.9846 16.8338 38.8908C16.74 38.797 16.6128 38.7444 16.4802 38.7444C16.3476 38.7444 16.2204 38.797 16.1267 38.8908C16.0329 38.9846 15.9802 39.1117 15.9802 39.2444C15.981 40.1214 16.1989 40.9847 16.6143 41.7571C17.0298 42.5296 17.6299 43.1872 18.3612 43.6714C18.0828 43.7564 17.8236 43.895 17.5982 44.0794L16.6442 44.8714L13.8042 46.2004C13.6101 46.2917 13.4528 46.4465 13.3583 46.6391C13.2638 46.8318 13.2377 47.0509 13.2842 47.2604C13.3308 47.4698 13.4472 47.6572 13.6144 47.7917C13.7816 47.9262 13.9897 47.9998 14.2042 48.0004H33.2202C33.8556 48.0001 34.4733 47.7905 34.9777 47.4041C35.4821 47.0177 35.8452 46.476 36.0109 45.8625C36.1766 45.2491 36.1357 44.5982 35.8944 44.0104C35.6532 43.4226 35.2251 42.9305 34.6762 42.6104ZM17.1312 45.7504C17.1698 45.7316 17.206 45.7085 17.2392 45.6814L18.2392 44.8494C18.4624 44.6642 18.7432 44.5627 19.0332 44.5624H21.2512L19.1822 47.0004H14.4532L17.1312 45.7504Z" fill="#222221"/>
<path id="Vector_11" d="M17.3726 6.8321C18.4981 6.39099 19.5894 5.86722 20.6376 5.2651C22.189 4.45233 23.4719 3.20793 24.3316 1.6821C25.1915 3.20805 26.4744 4.45273 28.0256 5.2661C28.4776 5.5191 28.9696 5.7861 29.5126 6.0531C29.632 6.11158 29.7697 6.12026 29.8954 6.07722C30.0212 6.03418 30.1247 5.94295 30.1831 5.8236C30.2416 5.70425 30.2503 5.56656 30.2072 5.44082C30.1642 5.31508 30.073 5.21158 29.9536 5.1531C29.4276 4.8951 28.9536 4.6361 28.5146 4.3911C25.3586 2.6251 24.8416 0.333101 24.8216 0.240101C24.7987 0.127072 24.7374 0.0254534 24.6481 -0.0475369C24.5588 -0.120527 24.447 -0.1604 24.3316 -0.1604C24.2163 -0.1604 24.1045 -0.120527 24.0152 -0.0475369C23.9259 0.0254534 23.8646 0.127072 23.8416 0.240101C23.8216 0.340101 23.3046 2.6281 20.1486 4.3961C19.1425 4.97482 18.0946 5.47755 17.0136 5.9001C8.97563 8.9901 4.89963 13.3131 4.89963 18.7491C4.91154 19.9583 5.19017 21.15 5.71563 22.2391C5.17517 22.6959 4.78055 23.3013 4.58063 23.9801C4.75465 24.7243 5.12641 25.4077 5.65663 25.9581C4.74522 27.2968 4.26157 28.8806 4.26963 30.5001V47.5001C4.26963 47.6327 4.32231 47.7599 4.41608 47.8537C4.50985 47.9474 4.63702 48.0001 4.76963 48.0001C4.90224 48.0001 5.02942 47.9474 5.12318 47.8537C5.21695 47.7599 5.26963 47.6327 5.26963 47.5001V30.5001C5.2559 28.9744 5.74824 27.4872 6.66963 26.2711C6.7479 26.1803 6.79095 26.0645 6.79095 25.9446C6.79095 25.8247 6.7479 25.7089 6.66963 25.6181C6.23597 25.1403 5.86621 24.6082 5.56963 24.0351C5.85751 23.5286 6.22949 23.0748 6.66963 22.6931C6.75183 22.6148 6.80493 22.5108 6.82019 22.3983C6.83546 22.2858 6.81198 22.1715 6.75363 22.0741C6.20285 21.05 5.9078 19.9079 5.89363 18.7451C5.89963 13.7691 9.75963 9.7591 17.3726 6.8321ZM31.0016 6.7191L31.1016 6.7601C31.1545 6.78102 31.2108 6.79187 31.2676 6.7921C31.3657 6.78757 31.46 6.75328 31.5381 6.69379C31.6162 6.6343 31.6743 6.55244 31.7046 6.4591C31.7448 6.32732 31.7333 6.1852 31.6726 6.06154C31.6119 5.93788 31.5065 5.84192 31.3776 5.7931C31.2548 5.74284 31.1171 5.74342 30.9947 5.79471C30.8724 5.84601 30.7754 5.94381 30.7251 6.0666C30.6749 6.1894 30.6755 6.32713 30.7267 6.4495C30.778 6.57186 30.8758 6.66884 30.9986 6.7191H31.0016ZM43.0066 25.9581C43.5369 25.4077 43.9086 24.7243 44.0826 23.9801C43.8827 23.3013 43.4881 22.6959 42.9476 22.2391C43.4731 21.15 43.7517 19.9583 43.7636 18.7491C43.7636 13.6101 40.1066 9.4561 32.8956 6.4021C32.7735 6.35038 32.6358 6.3493 32.5129 6.39909C32.39 6.44888 32.2918 6.54547 32.2401 6.6676C32.1884 6.78973 32.1873 6.92741 32.2371 7.05034C32.2869 7.17327 32.3835 7.27138 32.5056 7.3231C39.3116 10.2061 42.7636 14.0501 42.7636 18.7491C42.7495 19.9119 42.4544 21.054 41.9036 22.0781C41.8453 22.1755 41.8218 22.2898 41.8371 22.4023C41.8523 22.5148 41.9054 22.6188 41.9876 22.6971C42.4136 23.0766 42.7839 23.5142 43.0876 23.9971C42.8069 24.5922 42.4358 25.1403 41.9876 25.6221C41.9099 25.7137 41.8678 25.8301 41.8689 25.9502C41.87 26.0703 41.9143 26.186 41.9936 26.2761C42.9196 27.4894 43.4125 28.9779 43.3936 30.5041V47.5041C43.3936 47.6367 43.4463 47.7639 43.5401 47.8577C43.6338 47.9514 43.761 48.0041 43.8936 48.0041C44.0262 48.0041 44.1534 47.9514 44.2472 47.8577C44.341 47.7639 44.3936 47.6367 44.3936 47.5041V30.5041C44.4025 28.8833 43.9188 27.2979 43.0066 25.9581Z" fill="#222221"/>
</g>
</g>
<defs>
<clipPath id="clip0_1802_11419">
<rect width="48" height="48" fill="white" transform="translate(0.333008)"/>
</clipPath>
</defs>
</svg>
